<svg width="919" height="1315" viewBox="0 0 919 1315" fill="none" xmlns="http://www.w3.org/2000/svg">
<rect width="919" height="1315" fill="#D9D9D9"/>
<g opacity="0.9" clip-path="url(#clip0_0_1)">
<rect width="1973" height="1315" fill="#FF5858"/>
<path d="M1973.01 0H0V1315.02H1973.01V0Z" fill="white"/>
<path d="M131.526 0H0V131.494H131.526V0Z" fill="#9FBCF1"/>
<path d="M0 131.494C0 96.6197 13.8572 63.1737 38.5231 38.5138C63.189 13.8538 96.6432 0 131.526 0L0 131.494C34.8829 131.494 68.337 117.64 93.003 92.9804C117.669 68.3205 131.526 34.8744 131.526 0" fill="#B3B4F4"/>
<path d="M263.052 0H131.526V131.494H263.052V0Z" fill="#FDD89D"/>
<path d="M131.526 0C166.409 0 199.863 13.8538 224.529 38.5138C249.195 63.1737 263.052 96.6197 263.052 131.494L131.526 0C131.526 34.8744 145.384 68.3205 170.049 92.9804C194.715 117.64 228.17 131.494 263.052 131.494" fill="#F9A216"/>
<path d="M394.602 0H263.068V131.502H394.602V0Z" fill="white"/>
<path d="M328.842 0H263.07V65.7562H328.842V0Z" fill="#C7D8F7"/>
<path d="M263.07 0C263.07 17.4396 270 34.165 282.335 46.4967C294.669 58.8283 311.399 65.7562 328.842 65.7562V0H263.07Z" fill="#78A1EC"/>
<path d="M394.614 0H328.842V65.7562H394.614V0Z" fill="#FF7274"/>
<path d="M328.842 0C346.286 0 363.016 6.92787 375.35 19.2595C387.685 31.5912 394.614 48.3166 394.614 65.7562H328.842V0Z" fill="#FF7D7F"/>
<path d="M328.842 65.7559H263.07V131.512H328.842V65.7559Z" fill="#E4E4FB"/>
<path d="M263.07 131.512C280.514 131.512 297.244 124.584 309.578 112.253C321.913 99.9208 328.842 83.1955 328.842 65.7559H263.07V131.512Z" fill="#F99E0B"/>
<path d="M394.614 65.7559H328.842V131.512H394.614V65.7559Z" fill="#F99F0E"/>
<path d="M328.842 131.512C328.842 114.072 335.772 97.3471 348.106 85.0154C360.441 72.6837 377.171 65.7559 394.614 65.7559V131.512H328.842Z" fill="#FAAD32"/>
<path d="M526.135 0H394.602V131.502H526.135V0Z" fill="white"/>
<path d="M460.368 0H394.596V65.7562H460.368V0Z" fill="#90B1EF"/>
<path d="M394.596 0C412.04 0 428.769 6.92787 441.104 19.2595C453.439 31.5912 460.368 48.3166 460.368 65.7562H394.596V0Z" fill="#ECEDFC"/>
<path d="M526.141 0H460.369V65.7562H526.141V0Z" fill="#F99E0C"/>
<path d="M460.369 65.7562C460.369 48.3166 467.298 31.5912 479.633 19.2595C491.968 6.92787 508.697 0 526.141 0L460.369 65.7562C469.006 65.7562 477.559 64.0554 485.539 60.7508C493.518 57.4462 500.769 52.6027 506.877 46.4967C512.984 40.3906 517.829 33.1417 521.134 25.1638C524.44 17.1859 526.141 8.63523 526.141 0" fill="#6467E9"/>
<path d="M460.368 65.7559H394.596V131.512H460.368V65.7559Z" fill="white"/>
<path d="M394.596 65.7559C394.596 83.1955 401.526 99.9208 413.86 112.253C426.195 124.584 442.924 131.512 460.368 131.512V65.7559H394.596Z" fill="#4D4FE5"/>
<path d="M526.141 65.7559H460.369V131.512H526.141V65.7559Z" fill="#FF9496"/>
<path d="M460.369 65.7559C460.369 83.1955 467.298 99.9208 479.633 112.253C491.968 124.584 508.697 131.512 526.141 131.512V65.7559H460.369Z" fill="#97B6F0"/>
<path d="M657.67 0H526.136V131.502H657.67V0Z" fill="white"/>
<path d="M591.913 0H526.141V65.7562H591.913V0Z" fill="#FFAAAB"/>
<path d="M526.141 65.7562C526.141 48.3166 533.07 31.5912 545.405 19.2595C557.739 6.92787 574.469 0 591.913 0L526.141 65.7562C543.584 65.7562 560.314 58.8283 572.649 46.4967C584.983 34.165 591.913 17.4396 591.913 0" fill="#FDE0B1"/>
<path d="M657.667 0H591.895V65.7562H657.667V0Z" fill="#FFFDFD"/>
<path d="M591.895 0C591.895 8.63523 593.596 17.1859 596.901 25.1638C600.207 33.1417 605.051 40.3906 611.159 46.4967C617.266 52.6027 624.517 57.4462 632.497 60.7508C640.477 64.0554 649.029 65.7562 657.667 65.7562V0H591.895Z" fill="#FEFEFF"/>
<path d="M591.913 65.7559H526.141V131.512H591.913V65.7559Z" fill="#9D9EF1"/>
<path d="M526.141 65.7559C543.584 65.7559 560.314 72.6837 572.649 85.0154C584.983 97.3471 591.913 114.072 591.913 131.512H526.141V65.7559Z" fill="#6D6FEA"/>
<path d="M657.667 65.7559H591.895V131.512H657.667V65.7559Z" fill="#2225DF"/>
<path d="M591.895 65.7559C609.338 65.7559 626.068 72.6837 638.402 85.0154C650.737 97.3471 657.667 114.072 657.667 131.512L591.895 65.7559C591.895 74.3911 593.596 82.9418 596.901 90.9197C600.207 98.8976 605.051 106.146 611.159 112.253C617.266 118.359 624.517 123.202 632.497 126.507C640.477 129.811 649.029 131.512 657.667 131.512" fill="#7F81ED"/>
<path d="M789.193 0H657.667V131.494H789.193V0Z" fill="#6568E9"/>
<path d="M657.667 0C692.549 0 726.004 13.8538 750.669 38.5138C775.335 63.1737 789.193 96.6197 789.193 131.494L657.667 0C657.667 34.8744 671.524 68.3205 696.19 92.9804C720.856 117.64 754.31 131.494 789.193 131.494" fill="#FF4C4E"/>
<path d="M920.737 0H789.211V131.494H920.737V0Z" fill="#ACC5F3"/>
<path d="M789.211 131.494C789.211 114.226 792.613 97.1271 799.223 81.1735C805.833 65.2199 815.521 50.7241 827.734 38.5138C839.947 26.3034 854.447 16.6176 870.404 10.0094C886.362 3.4012 903.465 0 920.737 0L789.211 131.494C806.483 131.494 823.586 128.093 839.544 121.485C855.501 114.877 870.001 105.191 882.214 92.9804C894.427 80.7701 904.115 66.2742 910.725 50.3206C917.335 34.367 920.737 17.2681 920.737 0" fill="#3773E2"/>
<path d="M131.526 131.494H0V262.988H131.526V131.494Z" fill="#FFFAFA"/>
<path d="M0 131.494C0 166.369 13.8572 199.815 38.5231 224.475C63.189 249.135 96.6432 262.988 131.526 262.988V131.494H0Z" fill="#FEF5E7"/>
<path d="M263.068 131.502H131.534V263.004H263.068V131.502Z" fill="white"/>
<path d="M197.299 131.494H131.526V197.25H197.299V131.494Z" fill="#FFFCF7"/>
<path d="M131.526 197.25C131.526 179.811 138.456 163.085 150.791 150.754C163.125 138.422 179.855 131.494 197.299 131.494L131.526 197.25C148.97 197.25 165.7 190.322 178.034 177.991C190.369 165.659 197.299 148.934 197.299 131.494" fill="#FCCC7E"/>
<path d="M263.07 131.494H197.298V197.25H263.07V131.494Z" fill="#FAB13B"/>
<path d="M197.298 197.25C197.298 179.811 204.227 163.085 216.562 150.754C228.897 138.422 245.626 131.494 263.07 131.494V197.25H197.298Z" fill="#FFFAF2"/>
<path d="M197.299 197.25H131.526V263.006H197.299V197.25Z" fill="#FBBF5E"/>
<path d="M131.526 263.006C140.164 263.006 148.716 261.305 156.696 258.001C164.676 254.696 171.927 249.853 178.034 243.747C184.142 237.641 188.987 230.392 192.292 222.414C195.597 214.436 197.299 205.885 197.299 197.25H131.526V263.006Z" fill="#93B3F0"/>
<path d="M263.07 197.25H197.298V263.006H263.07V197.25Z" fill="#A6A7F2"/>
<path d="M197.298 263.006C197.298 245.567 204.227 228.841 216.562 216.51C228.897 204.178 245.626 197.25 263.07 197.25V263.006H197.298Z" fill="#FF4043"/>
<path d="M394.602 131.502H263.068V263.004H394.602V131.502Z" fill="white"/>
<path d="M328.842 131.494H263.07V197.25H328.842V131.494Z" fill="#FF3437"/>
<path d="M263.07 131.494C280.514 131.494 297.244 138.422 309.578 150.754C321.913 163.085 328.842 179.811 328.842 197.25L263.07 131.494C263.07 148.934 270 165.659 282.335 177.991C294.669 190.322 311.399 197.25 328.842 197.25" fill="#FAB33F"/>
<path d="M394.614 131.494H328.842V197.25H394.614V131.494Z" fill="#6B6DEA"/>
<path d="M328.842 197.25C328.842 179.811 335.772 163.085 348.106 150.754C360.441 138.422 377.171 131.494 394.614 131.494L328.842 197.25C346.286 197.25 363.016 190.322 375.35 177.991C387.685 165.659 394.614 148.934 394.614 131.494" fill="#FF7173"/>
<path d="M328.842 197.25H263.07V263.006H328.842V197.25Z" fill="#FDDDA9"/>
<path d="M263.07 197.25C263.07 205.885 264.772 214.436 268.077 222.414C271.382 230.392 276.227 237.641 282.335 243.747C294.669 256.078 311.399 263.006 328.842 263.006V197.25H263.07Z" fill="#CACBF7"/>
<path d="M394.614 197.25H328.842V263.006H394.614V197.25Z" fill="#6062E8"/>
<path d="M328.842 197.25C346.286 197.25 363.016 204.178 375.35 216.51C387.685 228.841 394.614 245.567 394.614 263.006L328.842 197.25C328.842 205.885 330.544 214.436 333.849 222.414C337.154 230.392 341.999 237.641 348.106 243.747C360.441 256.078 377.171 263.006 394.614 263.006" fill="#ADC6F3"/>
<path d="M526.135 131.502H394.602V263.004H526.135V131.502Z" fill="white"/>
<path d="M460.368 131.494H394.596V197.25H460.368V131.494Z" fill="#FF8F91"/>
<path d="M394.596 131.494C412.04 131.494 428.769 138.422 441.104 150.754C453.439 163.085 460.368 179.811 460.368 197.25L394.596 131.494C394.596 148.934 401.526 165.659 413.86 177.991C426.195 190.322 442.924 197.25 460.368 197.25" fill="#3F79E4"/>
<path d="M526.141 131.494H460.369V197.25H526.141V131.494Z" fill="#FF5F62"/>
<path d="M460.369 197.25C460.369 179.811 467.298 163.085 479.633 150.754C491.968 138.422 508.697 131.494 526.141 131.494V197.25H460.369Z" fill="#FF5659"/>
<path d="M460.368 197.25H394.596V263.006H460.368V197.25Z" fill="#E8EFFC"/>
<path d="M394.596 263.006C394.596 245.567 401.526 228.841 413.86 216.51C426.195 204.178 442.924 197.25 460.368 197.25L394.596 263.006C403.234 263.006 411.786 261.305 419.766 258.001C427.746 254.696 434.997 249.853 441.104 243.747C447.212 237.641 452.056 230.392 455.362 222.414C458.667 214.436 460.368 205.885 460.368 197.25" fill="#FAA51C"/>
<path d="M526.141 197.25H460.369V263.006H526.141V197.25Z" fill="#FF4F51"/>
<path d="M460.369 263.006C469.006 263.006 477.559 261.305 485.539 258.001C493.518 254.696 500.769 249.853 506.877 243.747C512.984 237.641 517.829 230.392 521.134 222.414C524.44 214.436 526.141 205.885 526.141 197.25H460.369V263.006Z" fill="#FCCC80"/>
<path d="M657.667 131.494H526.141V262.988H657.667V131.494Z" fill="#E7EEFC"/>
<path d="M526.141 262.988C543.413 262.988 560.516 259.587 576.473 252.979C592.431 246.371 606.93 236.685 619.144 224.475C631.357 212.264 641.045 197.768 647.655 181.815C654.265 165.861 657.667 148.762 657.667 131.494H526.141V262.988Z" fill="#EAEAFC"/>
<path d="M789.193 131.494H657.667V262.988H789.193V131.494Z" fill="#85AAED"/>
<path d="M657.667 262.988C692.549 262.988 726.004 249.135 750.669 224.475C775.335 199.815 789.193 166.369 789.193 131.494H657.667V262.988Z" fill="#8788EE"/>
<path d="M920.737 131.494H789.211V262.988H920.737V131.494Z" fill="#ACADF3"/>
<path d="M789.211 131.494C789.211 148.762 792.613 165.861 799.223 181.815C805.833 197.768 815.521 212.264 827.734 224.475C839.947 236.685 854.447 246.371 870.404 252.979C886.362 259.587 903.465 262.988 920.737 262.988V131.494H789.211Z" fill="#FF6567"/>
<path d="M131.526 263.006H0V394.5H131.526V263.006Z" fill="#417AE4"/>
<path d="M0 394.5C34.8829 394.5 68.337 380.646 93.003 355.986C117.669 331.326 131.526 297.88 131.526 263.006H0V394.5Z" fill="#AAC4F3"/>
<path d="M263.052 263.006H131.526V394.5H263.052V263.006Z" fill="#FDDFAF"/>
<path d="M131.526 394.5C131.526 359.626 145.384 326.18 170.049 301.52C194.715 276.86 228.17 263.006 263.052 263.006V394.5H131.526Z" fill="#FF6063"/>
<path d="M394.596 263.006H263.07V394.5H394.596V263.006Z" fill="#FDD9A1"/>
<path d="M263.07 263.006C297.953 263.006 331.407 276.86 356.073 301.52C380.739 326.18 394.596 359.626 394.596 394.5H263.07V263.006Z" fill="#417AE4"/>
<path d="M526.122 263.006H394.596V394.5H526.122V263.006Z" fill="#E8EFFC"/>
<path d="M394.596 394.5C394.596 359.626 408.453 326.18 433.119 301.52C457.785 276.86 491.239 263.006 526.122 263.006L394.596 394.5C429.479 394.5 462.933 380.646 487.599 355.986C512.265 331.326 526.122 297.88 526.122 263.006" fill="#F99C05"/>
<path d="M657.667 263.006H526.141V394.5H657.667V263.006Z" fill="#FF7375"/>
<path d="M526.141 394.5C526.141 359.626 539.998 326.18 564.664 301.52C589.33 276.86 622.784 263.006 657.667 263.006V394.5H526.141Z" fill="#FF9D9E"/>
<path d="M789.193 263.006H657.667V394.5H789.193V263.006Z" fill="#A5C0F2"/>
<path d="M657.667 263.006C692.549 263.006 726.004 276.86 750.669 301.52C775.335 326.18 789.193 359.626 789.193 394.5L657.667 263.006C657.667 297.88 671.524 331.326 696.19 355.986C720.856 380.646 754.31 394.5 789.193 394.5" fill="#4E83E6"/>
<path d="M920.737 263.006H789.211V394.5H920.737V263.006Z" fill="#5153E6"/>
<path d="M789.211 394.5C789.211 377.232 792.613 360.133 799.223 344.179C805.833 328.226 815.521 313.73 827.734 301.52C839.947 289.309 854.447 279.623 870.404 273.015C886.362 266.407 903.465 263.006 920.737 263.006V394.5H789.211Z" fill="#FF4B4E"/>
<path d="M131.534 394.506H0V526.008H131.534V394.506Z" fill="white"/>
<path d="M65.7721 394.5H0V460.256H65.7721V394.5Z" fill="#FCCB7B"/>
<path d="M0 460.256C0 442.817 6.92954 426.091 19.2642 413.76C31.5989 401.428 48.3283 394.5 65.7721 394.5V460.256H0Z" fill="#FF6466"/>
<path d="M131.545 394.5H65.7725V460.256H131.545V394.5Z" fill="#FEE6C0"/>
<path d="M65.7725 394.5C65.7725 411.94 72.702 428.665 85.0367 440.997C97.3713 453.328 114.101 460.256 131.545 460.256V394.5H65.7725Z" fill="#5759E7"/>
<path d="M65.7721 460.258H0V526.014H65.7721V460.258Z" fill="#FBB647"/>
<path d="M0 460.258C17.4439 460.258 34.1733 467.186 46.5079 479.517C58.8426 491.849 65.7721 508.574 65.7721 526.014L0 460.258C0 468.893 1.70125 477.444 5.00661 485.422C8.31196 493.4 13.1567 500.648 19.2642 506.754C25.3717 512.86 32.6224 517.704 40.6022 521.009C48.5821 524.313 57.1348 526.014 65.7721 526.014" fill="#FFE7E8"/>
<path d="M131.545 460.258H65.7725V526.014H131.545V460.258Z" fill="#CEDCF8"/>
<path d="M65.7725 526.014C65.7725 508.574 72.702 491.849 85.0367 479.517C97.3713 467.186 114.101 460.258 131.545 460.258L65.7725 526.014C74.4098 526.014 82.9625 524.313 90.9424 521.009C98.9222 517.704 106.173 512.86 112.28 506.754C118.388 500.648 123.233 493.4 126.538 485.422C129.843 477.444 131.545 468.893 131.545 460.258" fill="#5B8DE8"/>
<path d="M263.052 394.5H131.526V525.994H263.052V394.5Z" fill="#FF3437"/>
<path d="M131.526 525.994C166.409 525.994 199.863 512.14 224.529 487.48C249.195 462.82 263.052 429.374 263.052 394.5H131.526V525.994Z" fill="#2768E0"/>
<path d="M394.602 394.506H263.068V526.008H394.602V394.506Z" fill="white"/>
<path d="M328.842 394.5H263.07V460.256H328.842V394.5Z" fill="#8789EE"/>
<path d="M263.07 460.256C263.07 442.817 270 426.091 282.335 413.76C294.669 401.428 311.399 394.5 328.842 394.5V460.256H263.07Z" fill="#FFF1F1"/>
<path d="M394.614 394.5H328.842V460.256H394.614V394.5Z" fill="#C2D5F6"/>
<path d="M328.842 460.256C346.286 460.256 363.016 453.328 375.35 440.997C387.685 428.665 394.614 411.94 394.614 394.5H328.842V460.256Z" fill="#FFB0B1"/>
<path d="M328.842 460.258H263.07V526.014H328.842V460.258Z" fill="#FF9091"/>
<path d="M263.07 526.014C263.07 508.574 270 491.849 282.335 479.517C294.669 467.186 311.399 460.258 328.842 460.258V526.014H263.07Z" fill="#4346E4"/>
<path d="M394.614 460.258H328.842V526.014H394.614V460.258Z" fill="#FF6668"/>
<path d="M328.842 460.258C346.286 460.258 363.016 467.186 375.35 479.517C387.685 491.849 394.614 508.574 394.614 526.014H328.842V460.258Z" fill="#FBC46B"/>
<path d="M526.135 394.506H394.602V526.008H526.135V394.506Z" fill="white"/>
<path d="M460.368 394.5H394.596V460.256H460.368V394.5Z" fill="#2F32E1"/>
<path d="M394.596 394.5C394.596 411.94 401.526 428.665 413.86 440.997C426.195 453.328 442.924 460.256 460.368 460.256V394.5H394.596Z" fill="#B4CBF4"/>
<path d="M526.141 394.5H460.369V460.256H526.141V394.5Z" fill="#F9A112"/>
<path d="M460.369 460.256C460.369 442.817 467.298 426.091 479.633 413.76C491.968 401.428 508.697 394.5 526.141 394.5V460.256H460.369Z" fill="#FBB74A"/>
<path d="M460.368 460.258H394.596V526.014H460.368V460.258Z" fill="#FBBD59"/>
<path d="M394.596 460.258C412.04 460.258 428.769 467.186 441.104 479.517C453.439 491.849 460.368 508.574 460.368 526.014H394.596V460.258Z" fill="#7B7DEC"/>
<path d="M526.141 460.258H460.369V526.014H526.141V460.258Z" fill="#2567E0"/>
<path d="M460.369 460.258C469.006 460.258 477.559 461.959 485.539 465.263C493.518 468.568 500.769 473.411 506.877 479.517C512.984 485.623 517.829 492.872 521.134 500.85C524.44 508.828 526.141 517.379 526.141 526.014L460.369 460.258C460.369 468.893 462.07 477.444 465.375 485.422C468.681 493.4 473.525 500.648 479.633 506.754C485.74 512.86 492.991 517.704 500.971 521.009C508.951 524.313 517.503 526.014 526.141 526.014" fill="#FAAC2D"/>
<path d="M657.667 394.5H526.141V525.994H657.667V394.5Z" fill="#ECECFC"/>
<path d="M526.141 394.5C526.141 429.374 539.998 462.82 564.664 487.48C589.33 512.14 622.784 525.994 657.667 525.994V394.5H526.141Z" fill="#FAAF35"/>
<path d="M789.203 394.506H657.669V526.008H789.203V394.506Z" fill="white"/>
<path d="M723.439 394.5H657.667V460.256H723.439V394.5Z" fill="#2E6DE1"/>
<path d="M657.667 394.5C675.11 394.5 691.84 401.428 704.174 413.76C716.509 426.091 723.439 442.817 723.439 460.256H657.667V394.5Z" fill="#FCD089"/>
<path d="M789.211 394.5H723.439V460.256H789.211V394.5Z" fill="#3639E2"/>
<path d="M723.439 394.5C740.883 394.5 757.612 401.428 769.947 413.76C782.282 426.091 789.211 442.817 789.211 460.256H723.439V394.5Z" fill="#FF4E51"/>
<path d="M723.439 460.258H657.667V526.014H723.439V460.258Z" fill="#FAA319"/>
<path d="M657.667 526.014C657.667 508.574 664.596 491.849 676.931 479.517C689.265 467.186 705.995 460.258 723.439 460.258L657.667 526.014C666.304 526.014 674.857 524.313 682.836 521.009C690.816 517.704 698.067 512.86 704.174 506.754C710.282 500.648 715.127 493.4 718.432 485.422C721.737 477.444 723.439 468.893 723.439 460.258" fill="#2E31E1"/>
<path d="M789.211 460.258H723.439V526.014H789.211V460.258Z" fill="#E6EEFB"/>
<path d="M723.439 526.014C740.883 526.014 757.612 519.086 769.947 506.754C782.282 494.423 789.211 477.697 789.211 460.258H723.439V526.014Z" fill="#FF8082"/>
<path d="M920.737 394.506H789.203V526.008H920.737V394.506Z" fill="white"/>
<path d="M854.983 394.5H789.211V460.256H854.983V394.5Z" fill="#FBB94F"/>
<path d="M789.211 460.256C789.211 442.817 796.14 426.091 808.475 413.76C820.81 401.428 837.539 394.5 854.983 394.5V460.256H789.211Z" fill="#D9DAFA"/>
<path d="M920.737 394.5H854.965V460.256H920.737V394.5Z" fill="#FF9395"/>
<path d="M854.965 394.5C872.409 394.5 889.138 401.428 901.473 413.76C913.807 426.091 920.737 442.817 920.737 460.256H854.965V394.5Z" fill="#B1B2F4"/>
<path d="M854.983 460.258H789.211V526.014H854.983V460.258Z" fill="#FFEEEE"/>
<path d="M789.211 460.258C806.655 460.258 823.384 467.186 835.719 479.517C848.054 491.849 854.983 508.574 854.983 526.014H789.211V460.258Z" fill="#FCD18C"/>
<path d="M920.737 460.258H854.965V526.014H920.737V460.258Z" fill="#FF9798"/>
<path d="M854.965 526.014C854.965 517.379 856.666 508.828 859.971 500.85C863.277 492.872 868.122 485.623 874.229 479.517C880.337 473.411 887.587 468.568 895.567 465.263C903.547 461.959 912.1 460.258 920.737 460.258V526.014H854.965Z" fill="#FCCC80"/>
<path d="M131.534 526.008H0V657.51H131.534V526.008Z" fill="white"/>
<path d="M65.7721 526.014H0V591.77H65.7721V526.014Z" fill="#FFCECF"/>
<path d="M0 591.77C17.4439 591.77 34.1733 584.842 46.5079 572.51C58.8426 560.179 65.7721 543.453 65.7721 526.014H0V591.77Z" fill="#7D7FEC"/>
<path d="M131.545 526.014H65.7725V591.77H131.545V526.014Z" fill="#D6E3F9"/>
<path d="M65.7725 526.014C83.2163 526.014 99.9457 532.941 112.28 545.273C124.615 557.605 131.545 574.33 131.545 591.77H65.7725V526.014Z" fill="#FAAF37"/>
<path d="M65.7721 591.752H0V657.508H65.7721V591.752Z" fill="#FFFEFD"/>
<path d="M0 657.508C0 648.873 1.70125 640.322 5.00661 632.344C8.31196 624.366 13.1567 617.118 19.2642 611.012C25.3717 604.905 32.6224 600.062 40.6022 596.757C48.5821 593.453 57.1348 591.752 65.7721 591.752V657.508H0Z" fill="#FAB038"/>
<path d="M131.545 591.752H65.7725V657.508H131.545V591.752Z" fill="#FAAE34"/>
<path d="M65.7725 591.752C74.4098 591.752 82.9625 593.453 90.9424 596.757C98.9222 600.062 106.173 604.905 112.28 611.012C118.388 617.118 123.233 624.366 126.538 632.344C129.843 640.322 131.545 648.873 131.545 657.508H65.7725V591.752Z" fill="#BCBDF5"/>
<path d="M263.068 526.008H131.534V657.51H263.068V526.008Z" fill="white"/>
<path d="M197.299 526.014H131.526V591.77H197.299V526.014Z" fill="#FF8B8C"/>
<path d="M131.526 591.77C131.526 574.33 138.456 557.605 150.791 545.273C163.125 532.941 179.855 526.014 197.299 526.014L131.526 591.77C148.97 591.77 165.7 584.842 178.034 572.51C190.369 560.179 197.299 543.453 197.299 526.014" fill="#FFB1B2"/>
<path d="M263.07 526.014H197.298V591.77H263.07V526.014Z" fill="#FAB038"/>
<path d="M197.298 526.014C197.298 543.453 204.227 560.179 216.562 572.51C228.897 584.842 245.626 591.77 263.07 591.77V526.014H197.298Z" fill="#FDE0B1"/>
<path d="M197.299 591.752H131.526V657.508H197.299V591.752Z" fill="#FBC062"/>
<path d="M131.526 591.752C140.164 591.752 148.716 593.453 156.696 596.757C164.676 600.062 171.927 604.905 178.034 611.012C184.142 617.118 188.987 624.366 192.292 632.344C195.597 640.322 197.299 648.873 197.299 657.508L131.526 591.752C131.526 609.192 138.456 625.917 150.791 638.249C163.125 650.58 179.855 657.508 197.299 657.508" fill="#A9C3F3"/>
<path d="M263.07 591.752H197.298V657.508H263.07V591.752Z" fill="#6E70EA"/>
<path d="M197.298 591.752C197.298 609.192 204.227 625.917 216.562 638.249C228.897 650.58 245.626 657.508 263.07 657.508V591.752H197.298Z" fill="#98B7F0"/>
<path d="M394.596 526.014H263.07V657.508H394.596V526.014Z" fill="#5F8FE8"/>
<path d="M263.07 657.508C280.343 657.508 297.446 654.107 313.403 647.498C329.361 640.89 343.86 631.204 356.073 618.994C368.287 606.784 377.975 592.288 384.585 576.334C391.194 560.381 394.596 543.282 394.596 526.014H263.07V657.508Z" fill="#9D9EF1"/>
<path d="M526.135 526.008H394.602V657.51H526.135V526.008Z" fill="white"/>
<path d="M460.368 526.014H394.596V591.77H460.368V526.014Z" fill="#FFDDDD"/>
<path d="M394.596 591.77C412.04 591.77 428.769 584.842 441.104 572.51C453.439 560.179 460.368 543.453 460.368 526.014H394.596V591.77Z" fill="#FCC876"/>
<path d="M526.141 526.014H460.369V591.77H526.141V526.014Z" fill="#6D6FEA"/>
<path d="M460.369 526.014C460.369 543.453 467.298 560.179 479.633 572.51C491.968 584.842 508.697 591.77 526.141 591.77V526.014H460.369Z" fill="#FFAFB0"/>
<path d="M460.368 591.752H394.596V657.508H460.368V591.752Z" fill="#FBB84C"/>
<path d="M394.596 591.752C403.234 591.752 411.786 593.453 419.766 596.757C427.746 600.062 434.997 604.905 441.104 611.012C447.212 617.118 452.056 624.366 455.362 632.344C458.667 640.322 460.368 648.873 460.368 657.508H394.596V591.752Z" fill="#FFFFFE"/>
<path d="M526.141 591.752H460.369V657.508H526.141V591.752Z" fill="#80A6ED"/>
<path d="M460.369 657.508C460.369 648.873 462.07 640.322 465.375 632.344C468.681 624.366 473.525 617.118 479.633 611.012C485.74 604.905 492.991 600.062 500.971 596.757C508.951 593.453 517.503 591.752 526.141 591.752L460.369 657.508C469.006 657.508 477.559 655.807 485.539 652.503C493.518 649.198 500.769 644.355 506.877 638.249C512.984 632.143 517.829 624.894 521.134 616.916C524.44 608.938 526.141 600.387 526.141 591.752" fill="#D3E0F9"/>
<path d="M657.667 526.014H526.141V657.508H657.667V526.014Z" fill="#FF898B"/>
<path d="M526.141 657.508C543.413 657.508 560.516 654.107 576.473 647.498C592.431 640.89 606.93 631.204 619.144 618.994C631.357 606.784 641.045 592.288 647.655 576.334C654.265 560.381 657.667 543.282 657.667 526.014H526.141V657.508Z" fill="#8FB1EF"/>
<path d="M789.203 526.008H657.669V657.51H789.203V526.008Z" fill="white"/>
<path d="M723.439 526.014H657.667V591.77H723.439V526.014Z" fill="#C3D5F6"/>
<path d="M657.667 526.014C657.667 543.453 664.596 560.179 676.931 572.51C689.265 584.842 705.995 591.77 723.439 591.77V526.014H657.667Z" fill="#FF6164"/>
<path d="M789.211 526.014H723.439V591.77H789.211V526.014Z" fill="#FAAA28"/>
<path d="M723.439 526.014C723.439 543.453 730.369 560.179 742.703 572.51C755.038 584.842 771.767 591.77 789.211 591.77V526.014H723.439Z" fill="#FBB74A"/>
<path d="M723.439 591.752H657.667V657.508H723.439V591.752Z" fill="#2D6CE1"/>
<path d="M657.667 657.508C657.667 648.873 659.368 640.322 662.673 632.344C665.978 624.366 670.823 617.118 676.931 611.012C683.038 604.905 690.289 600.062 698.269 596.757C706.249 593.453 714.801 591.752 723.439 591.752V657.508H657.667Z" fill="#8AADEE"/>
<path d="M789.211 591.752H723.439V657.508H789.211V591.752Z" fill="#9FBCF1"/>
<path d="M723.439 657.508C740.883 657.508 757.612 650.58 769.947 638.249C782.282 625.917 789.211 609.192 789.211 591.752H723.439V657.508Z" fill="#F0F0FD"/>
<path d="M920.737 526.014H789.211V657.508H920.737V526.014Z" fill="#FFE9E9"/>
<path d="M789.211 526.014C824.094 526.014 857.548 539.867 882.214 564.527C906.88 589.187 920.737 622.633 920.737 657.508H789.211V526.014Z" fill="#F3F7FD"/>
<path d="M131.534 657.51H0V789.012H131.534V657.51Z" fill="white"/>
<path d="M65.7721 657.508H0V723.264H65.7721V657.508Z" fill="#F6F9FE"/>
<path d="M0 657.508C17.4439 657.508 34.1733 664.436 46.5079 676.767C58.8426 689.099 65.7721 705.824 65.7721 723.264H0V657.508Z" fill="#4A4CE5"/>
<path d="M131.545 657.508H65.7725V723.264H131.545V657.508Z" fill="#CBCCF8"/>
<path d="M65.7725 723.264C83.2163 723.264 99.9457 716.336 112.28 704.004C124.615 691.673 131.545 674.947 131.545 657.508H65.7725V723.264Z" fill="#ECECFC"/>
<path d="M65.7721 723.264H0V789.02H65.7721V723.264Z" fill="#FF4043"/>
<path d="M0 789.02C17.4439 789.02 34.1733 782.092 46.5079 769.76C58.8426 757.429 65.7721 740.703 65.7721 723.264H0V789.02Z" fill="#FF7E80"/>
<path d="M131.545 723.264H65.7725V789.02H131.545V723.264Z" fill="#FBFCFE"/>
<path d="M65.7725 723.264C65.7725 740.703 72.702 757.429 85.0367 769.76C97.3713 782.092 114.101 789.02 131.545 789.02V723.264H65.7725Z" fill="#FEF4E4"/>
<path d="M263.068 657.51H131.534V789.012H263.068V657.51Z" fill="white"/>
<path d="M197.299 657.508H131.526V723.264H197.299V657.508Z" fill="#FDE2B6"/>
<path d="M131.526 657.508C131.526 674.947 138.456 691.673 150.791 704.004C163.125 716.336 179.855 723.264 197.299 723.264V657.508H131.526Z" fill="#D5D6F9"/>
<path d="M263.07 657.508H197.298V723.264H263.07V657.508Z" fill="#FCD18C"/>
<path d="M197.298 723.264C197.298 705.824 204.227 689.099 216.562 676.767C228.897 664.436 245.626 657.508 263.07 657.508V723.264H197.298Z" fill="#FCCA79"/>
<path d="M197.299 723.264H131.526V789.02H197.299V723.264Z" fill="#FFDFE0"/>
<path d="M131.526 723.264C148.97 723.264 165.7 730.192 178.034 742.523C190.369 754.855 197.299 771.58 197.299 789.02L131.526 723.264C131.526 740.703 138.456 757.429 150.791 769.76C163.125 782.092 179.855 789.02 197.299 789.02" fill="#FBBC57"/>
<path d="M263.07 723.264H197.298V789.02H263.07V723.264Z" fill="#9192EF"/>
<path d="M197.298 723.264C205.935 723.264 214.488 724.965 222.468 728.269C230.448 731.574 237.698 736.417 243.806 742.523C249.913 748.629 254.758 755.878 258.063 763.856C261.369 771.834 263.07 780.385 263.07 789.02H197.298V723.264Z" fill="#FCCF87"/>
<path d="M394.596 657.508H263.07V789.002H394.596V657.508Z" fill="#FFEDED"/>
<path d="M263.07 789.002C297.953 789.002 331.407 775.148 356.073 750.488C380.739 725.828 394.596 692.382 394.596 657.508H263.07V789.002Z" fill="#6466E9"/>
<path d="M526.122 657.508H394.596V789.002H526.122V657.508Z" fill="#FF3538"/>
<path d="M394.596 657.508C429.479 657.508 462.933 671.362 487.599 696.022C512.265 720.682 526.122 754.128 526.122 789.002H394.596V657.508Z" fill="#E0EAFB"/>
<path d="M657.67 657.51H526.136V789.012H657.67V657.51Z" fill="white"/>
<path d="M591.913 657.508H526.141V723.264H591.913V657.508Z" fill="#FF7376"/>
<path d="M526.141 657.508C526.141 674.947 533.07 691.673 545.405 704.004C557.739 716.336 574.469 723.264 591.913 723.264V657.508H526.141Z" fill="#7EA5ED"/>
<path d="M657.667 657.508H591.895V723.264H657.667V657.508Z" fill="#FEE9C7"/>
<path d="M591.895 657.508C609.338 657.508 626.068 664.436 638.402 676.767C650.737 689.099 657.667 705.824 657.667 723.264H591.895V657.508Z" fill="#FF5254"/>
<path d="M591.913 723.264H526.141V789.02H591.913V723.264Z" fill="#4C82E5"/>
<path d="M526.141 789.02C526.141 771.58 533.07 754.855 545.405 742.523C557.739 730.192 574.469 723.264 591.913 723.264L526.141 789.02C543.584 789.02 560.314 782.092 572.649 769.76C584.983 757.429 591.913 740.703 591.913 723.264" fill="#CCCDF8"/>
<path d="M657.667 723.264H591.895V789.02H657.667V723.264Z" fill="#A7A9F2"/>
<path d="M591.895 789.02C591.895 780.385 593.596 771.834 596.901 763.856C600.207 755.878 605.051 748.629 611.159 742.523C617.266 736.417 624.517 731.574 632.497 728.269C640.477 724.965 649.029 723.264 657.667 723.264L591.895 789.02C609.338 789.02 626.068 782.092 638.402 769.76C650.737 757.429 657.667 740.703 657.667 723.264" fill="#FFBBBC"/>
<path d="M789.203 657.51H657.669V789.012H789.203V657.51Z" fill="white"/>
<path d="M723.439 657.508H657.667V723.264H723.439V657.508Z" fill="#C3C3F6"/>
<path d="M657.667 657.508C657.667 674.947 664.596 691.673 676.931 704.004C689.265 716.336 705.995 723.264 723.439 723.264V657.508H657.667Z" fill="#8082ED"/>
<path d="M789.211 657.508H723.439V723.264H789.211V657.508Z" fill="#DFDFFA"/>
<path d="M723.439 723.264C723.439 705.824 730.369 689.099 742.703 676.767C755.038 664.436 771.767 657.508 789.211 657.508L723.439 723.264C740.883 723.264 757.612 716.336 769.947 704.004C782.282 691.673 789.211 674.947 789.211 657.508" fill="#FFF7EA"/>
<path d="M723.439 723.264H657.667V789.02H723.439V723.264Z" fill="#FF4043"/>
<path d="M657.667 789.02C657.667 771.58 664.596 754.855 676.931 742.523C689.265 730.192 705.995 723.264 723.439 723.264L657.667 789.02C675.11 789.02 691.84 782.092 704.174 769.76C716.509 757.429 723.439 740.703 723.439 723.264" fill="#FFE4E4"/>
<path d="M789.211 723.264H723.439V789.02H789.211V723.264Z" fill="#FFFBF6"/>
<path d="M723.439 723.264C740.883 723.264 757.612 730.192 769.947 742.523C782.282 754.855 789.211 771.58 789.211 789.02H723.439V723.264Z" fill="#FBC163"/>
<path d="M920.737 657.508H789.211V789.002H920.737V657.508Z" fill="#FFECEC"/>
<path d="M789.211 657.508C824.094 657.508 857.548 671.362 882.214 696.022C906.88 720.682 920.737 754.128 920.737 789.002H789.211V657.508Z" fill="#383AE2"/>
<path d="M131.534 789.012H0V920.514H131.534V789.012Z" fill="white"/>
<path d="M65.7721 789.02H0V854.776H65.7721V789.02Z" fill="#FFECEC"/>
<path d="M0 789.02C17.4439 789.02 34.1733 795.947 46.5079 808.279C58.8426 820.611 65.7721 837.336 65.7721 854.776L0 789.02C0 806.459 6.92954 823.185 19.2642 835.516C31.5989 847.848 48.3283 854.776 65.7721 854.776" fill="#484AE5"/>
<path d="M131.545 789.02H65.7725V854.776H131.545V789.02Z" fill="#7F81ED"/>
<path d="M65.7725 854.776C83.2163 854.776 99.9457 847.848 112.28 835.516C124.615 823.185 131.545 806.459 131.545 789.02H65.7725V854.776Z" fill="#FDD697"/>
<path d="M65.7721 854.758H0V920.514H65.7721V854.758Z" fill="#88ACEE"/>
<path d="M0 920.514C0 911.879 1.70125 903.328 5.00661 895.35C8.31196 887.372 13.1567 880.123 19.2642 874.017C25.3717 867.911 32.6224 863.068 40.6022 859.763C48.5821 856.459 57.1348 854.758 65.7721 854.758V920.514H0Z" fill="white"/>
<path d="M131.545 854.758H65.7725V920.514H131.545V854.758Z" fill="#FAA721"/>
<path d="M65.7725 854.758C65.7725 872.197 72.702 888.923 85.0367 901.254C97.3713 913.586 114.101 920.514 131.545 920.514V854.758H65.7725Z" fill="#5286E6"/>
<path d="M263.052 789.02H131.526V920.514H263.052V789.02Z" fill="#6A6CEA"/>
<path d="M131.526 789.02C148.799 789.02 165.902 792.421 181.859 799.029C197.817 805.637 212.316 815.323 224.529 827.533C236.743 839.744 246.431 854.239 253.041 870.193C259.65 886.147 263.052 903.246 263.052 920.514L131.526 789.02C131.526 806.288 134.928 823.387 141.538 839.34C148.148 855.294 157.836 869.79 170.049 882C182.263 894.21 196.762 903.896 212.72 910.504C228.677 917.113 245.78 920.514 263.052 920.514" fill="#F2F2FD"/>
<path d="M394.596 789.02H263.07V920.514H394.596V789.02Z" fill="#D4D5F9"/>
<path d="M263.07 920.514C297.953 920.514 331.407 906.66 356.073 882C380.739 857.34 394.596 823.894 394.596 789.02H263.07V920.514Z" fill="#898BEE"/>
<path d="M526.122 789.02H394.596V920.514H526.122V789.02Z" fill="#FBC163"/>
<path d="M394.596 920.514C394.596 903.246 397.998 886.147 404.608 870.193C411.218 854.239 420.906 839.744 433.119 827.533C445.333 815.323 459.832 805.637 475.789 799.029C491.747 792.421 508.85 789.02 526.122 789.02V920.514H394.596Z" fill="#6896E9"/>
<path d="M657.667 789.02H526.141V920.514H657.667V789.02Z" fill="#2F6DE1"/>
<path d="M526.141 789.02C543.413 789.02 560.516 792.421 576.473 799.029C592.431 805.637 606.93 815.323 619.144 827.533C631.357 839.744 641.045 854.239 647.655 870.193C654.265 886.147 657.667 903.246 657.667 920.514H526.141V789.02Z" fill="#FFA0A2"/>
<path d="M789.193 789.02H657.667V920.514H789.193V789.02Z" fill="#FFD1D2"/>
<path d="M657.667 920.514C657.667 903.246 661.069 886.147 667.678 870.193C674.288 854.239 683.976 839.744 696.19 827.533C708.403 815.323 722.902 805.637 738.86 799.029C754.817 792.421 771.92 789.02 789.193 789.02L657.667 920.514C692.549 920.514 726.004 906.66 750.669 882C775.335 857.34 789.193 823.894 789.193 789.02" fill="#C6D7F7"/>
<path d="M920.737 789.012H789.203V920.514H920.737V789.012Z" fill="white"/>
<path d="M854.983 789.02H789.211V854.776H854.983V789.02Z" fill="#B8B9F5"/>
<path d="M789.211 854.776C789.211 837.336 796.14 820.611 808.475 808.279C820.81 795.947 837.539 789.02 854.983 789.02L789.211 854.776C806.655 854.776 823.384 847.848 835.719 835.516C848.054 823.185 854.983 806.459 854.983 789.02" fill="#FF5355"/>
<path d="M920.737 789.02H854.965V854.776H920.737V789.02Z" fill="#FF9A9B"/>
<path d="M854.965 789.02C872.409 789.02 889.138 795.947 901.473 808.279C913.807 820.611 920.737 837.336 920.737 854.776L854.965 789.02C854.965 797.655 856.666 806.205 859.971 814.183C863.277 822.161 868.122 829.41 874.229 835.516C880.337 841.622 887.587 846.466 895.567 849.77C903.547 853.075 912.1 854.776 920.737 854.776" fill="#D8D9F9"/>
<path d="M854.983 854.758H789.211V920.514H854.983V854.758Z" fill="#FF8183"/>
<path d="M789.211 920.514C806.655 920.514 823.384 913.586 835.719 901.254C848.054 888.923 854.983 872.197 854.983 854.758H789.211V920.514Z" fill="#82A7ED"/>
<path d="M920.737 854.758H854.965V920.514H920.737V854.758Z" fill="#E0E9FB"/>
<path d="M854.965 854.758C863.602 854.758 872.155 856.459 880.135 859.763C888.115 863.068 895.365 867.911 901.473 874.017C907.58 880.123 912.425 887.372 915.73 895.35C919.036 903.328 920.737 911.879 920.737 920.514L854.965 854.758C854.965 863.393 856.666 871.944 859.971 879.922C863.277 887.9 868.122 895.148 874.229 901.254C880.337 907.36 887.587 912.204 895.567 915.509C903.547 918.813 912.1 920.514 920.737 920.514" fill="#4A80E5"/>
<path d="M131.534 920.514H0V1052.02H131.534V920.514Z" fill="white"/>
<path d="M65.7721 920.514H0V986.27H65.7721V920.514Z" fill="#FFC3C4"/>
<path d="M0 920.514C0 937.953 6.92954 954.679 19.2642 967.01C31.5989 979.342 48.3283 986.27 65.7721 986.27V920.514H0Z" fill="#FF373A"/>
<path d="M131.545 920.514H65.7725V986.27H131.545V920.514Z" fill="#FFCFCF"/>
<path d="M65.7725 920.514C83.2163 920.514 99.9457 927.442 112.28 939.773C124.615 952.105 131.545 968.83 131.545 986.27H65.7725V920.514Z" fill="#6567E9"/>
<path d="M65.7721 986.27H0V1052.03H65.7721V986.27Z" fill="#FF5053"/>
<path d="M0 986.27C0 1003.71 6.92954 1020.43 19.2642 1032.77C31.5989 1045.1 48.3283 1052.03 65.7721 1052.03V986.27H0Z" fill="#F3F3FD"/>
<path d="M131.545 986.27H65.7725V1052.03H131.545V986.27Z" fill="#769FEB"/>
<path d="M65.7725 986.27C83.2163 986.27 99.9457 993.197 112.28 1005.53C124.615 1017.86 131.545 1034.59 131.545 1052.03H65.7725V986.27Z" fill="#F9A114"/>
<path d="M263.052 920.514H131.526V1052.01H263.052V920.514Z" fill="#B7B8F5"/>
<path d="M131.526 920.514C166.409 920.514 199.863 934.367 224.529 959.027C249.195 983.687 263.052 1017.13 263.052 1052.01L131.526 920.514C131.526 955.388 145.384 988.834 170.049 1013.49C194.715 1038.15 228.17 1052.01 263.052 1052.01" fill="#FCD18A"/>
<path d="M394.596 920.514H263.07V1052.01H394.596V920.514Z" fill="#B6B7F5"/>
<path d="M263.07 920.514C263.07 955.388 276.927 988.834 301.593 1013.49C326.259 1038.15 359.713 1052.01 394.596 1052.01V920.514H263.07Z" fill="#9D9FF1"/>
<path d="M526.135 920.514H394.602V1052.02H526.135V920.514Z" fill="white"/>
<path d="M460.368 920.514H394.596V986.27H460.368V920.514Z" fill="#FFE2E3"/>
<path d="M394.596 920.514C394.596 937.953 401.526 954.679 413.86 967.01C426.195 979.342 442.924 986.27 460.368 986.27V920.514H394.596Z" fill="#7678EB"/>
<path d="M526.141 920.514H460.369V986.27H526.141V920.514Z" fill="#D4E1F9"/>
<path d="M460.369 920.514C469.006 920.514 477.559 922.215 485.539 925.519C493.518 928.824 500.769 933.667 506.877 939.773C512.984 945.879 517.829 953.128 521.134 961.106C524.44 969.084 526.141 977.635 526.141 986.27H460.369V920.514Z" fill="#437CE4"/>
<path d="M460.368 986.27H394.596V1052.03H460.368V986.27Z" fill="#FFE7E8"/>
<path d="M394.596 1052.03C412.04 1052.03 428.769 1045.1 441.104 1032.77C453.439 1020.43 460.368 1003.71 460.368 986.27H394.596V1052.03Z" fill="#4547E4"/>
<path d="M526.141 986.27H460.369V1052.03H526.141V986.27Z" fill="#FCD594"/>
<path d="M460.369 1052.03C469.006 1052.03 477.559 1050.32 485.539 1047.02C493.518 1043.72 500.769 1038.87 506.877 1032.77C512.984 1026.66 517.829 1019.41 521.134 1011.43C524.44 1003.46 526.141 994.905 526.141 986.27H460.369V1052.03Z" fill="#FF373A"/>
<path d="M657.67 920.514H526.136V1052.02H657.67V920.514Z" fill="white"/>
<path d="M591.913 920.514H526.141V986.27H591.913V920.514Z" fill="#E1EAFB"/>
<path d="M526.141 986.27C526.141 968.83 533.07 952.105 545.405 939.773C557.739 927.442 574.469 920.514 591.913 920.514L526.141 986.27C543.584 986.27 560.314 979.342 572.649 967.01C584.983 954.679 591.913 937.953 591.913 920.514" fill="#8FB1EF"/>
<path d="M657.667 920.514H591.895V986.27H657.667V920.514Z" fill="#87ABEE"/>
<path d="M591.895 986.27C609.338 986.27 626.068 979.342 638.402 967.01C650.737 954.679 657.667 937.953 657.667 920.514H591.895V986.27Z" fill="#FAB13C"/>
<path d="M591.913 986.27H526.141V1052.03H591.913V986.27Z" fill="#4B81E5"/>
<path d="M526.141 986.27C543.584 986.27 560.314 993.197 572.649 1005.53C584.983 1017.86 591.913 1034.59 591.913 1052.03H526.141V986.27Z" fill="#FBC369"/>
<path d="M657.667 986.27H591.895V1052.03H657.667V986.27Z" fill="#2427E0"/>
<path d="M591.895 1052.03C591.895 1043.39 593.596 1034.84 596.901 1026.86C600.207 1018.88 605.051 1011.64 611.159 1005.53C617.266 999.423 624.517 994.579 632.497 991.275C640.477 987.97 649.029 986.27 657.667 986.27L591.895 1052.03C609.338 1052.03 626.068 1045.1 638.402 1032.77C650.737 1020.43 657.667 1003.71 657.667 986.27" fill="#E3E3FB"/>
<path d="M789.193 920.514H657.667V1052.01H789.193V920.514Z" fill="#7F80ED"/>
<path d="M657.667 1052.01C657.667 1017.13 671.524 983.687 696.19 959.027C720.856 934.367 754.31 920.514 789.193 920.514L657.667 1052.01C692.549 1052.01 726.004 1038.15 750.669 1013.49C775.335 988.834 789.193 955.388 789.193 920.514" fill="#AAC3F3"/>
<path d="M920.737 920.514H789.211V1052.01H920.737V920.514Z" fill="#3B76E3"/>
<path d="M789.211 1052.01C789.211 1034.74 792.613 1017.64 799.223 1001.69C805.833 985.734 815.521 971.238 827.734 959.027C839.947 946.817 854.447 937.131 870.404 930.523C886.362 923.915 903.465 920.514 920.737 920.514V1052.01H789.211Z" fill="#FAAC2D"/>
<path d="M131.526 1052.01H0V1183.5H131.526V1052.01Z" fill="#FBBF5E"/>
<path d="M0 1052.01C0 1086.88 13.8572 1120.33 38.5231 1144.99C63.189 1169.65 96.6432 1183.5 131.526 1183.5V1052.01H0Z" fill="#FEF1DD"/>
<path d="M263.068 1052.02H131.534V1183.52H263.068V1052.02Z" fill="white"/>
<path d="M197.299 1052.01H131.526V1117.76H197.299V1052.01Z" fill="#A6C1F2"/>
<path d="M131.526 1117.76C131.526 1100.32 138.456 1083.6 150.791 1071.27C163.125 1058.94 179.855 1052.01 197.299 1052.01V1117.76H131.526Z" fill="#9899F0"/>
<path d="M263.07 1052.01H197.298V1117.76H263.07V1052.01Z" fill="#EFF4FD"/>
<path d="M197.298 1117.76C197.298 1100.32 204.227 1083.6 216.562 1071.27C228.897 1058.94 245.626 1052.01 263.07 1052.01L197.298 1117.76C205.935 1117.76 214.488 1116.06 222.468 1112.76C230.448 1109.45 237.698 1104.61 243.806 1098.5C249.913 1092.4 254.758 1085.15 258.063 1077.17C261.369 1069.19 263.07 1060.64 263.07 1052.01" fill="#FAB23D"/>
<path d="M197.299 1117.76H131.526V1183.52H197.299V1117.76Z" fill="#F9F9FE"/>
<path d="M131.526 1117.76C148.97 1117.76 165.7 1124.69 178.034 1137.02C190.369 1149.35 197.299 1166.08 197.299 1183.52L131.526 1117.76C131.526 1135.2 138.456 1151.93 150.791 1164.26C163.125 1176.59 179.855 1183.52 197.299 1183.52" fill="#BACFF5"/>
<path d="M263.07 1117.76H197.298V1183.52H263.07V1117.76Z" fill="#F99A01"/>
<path d="M197.298 1183.52C205.935 1183.52 214.488 1181.82 222.468 1178.51C230.448 1175.21 237.698 1170.37 243.806 1164.26C249.913 1158.15 254.758 1150.91 258.063 1142.93C261.369 1134.95 263.07 1126.4 263.07 1117.76H197.298V1183.52Z" fill="#FFF7EB"/>
<path d="M394.602 1052.02H263.068V1183.52H394.602V1052.02Z" fill="white"/>
<path d="M328.842 1052.01H263.07V1117.76H328.842V1052.01Z" fill="#A3A4F2"/>
<path d="M263.07 1052.01C280.514 1052.01 297.244 1058.94 309.578 1071.27C321.913 1083.6 328.842 1100.32 328.842 1117.76L263.07 1052.01C263.07 1069.45 270 1086.17 282.335 1098.5C294.669 1110.84 311.399 1117.76 328.842 1117.76" fill="#BDD1F6"/>
<path d="M394.614 1052.01H328.842V1117.76H394.614V1052.01Z" fill="#DDE7FA"/>
<path d="M328.842 1117.76C328.842 1100.32 335.772 1083.6 348.106 1071.27C360.441 1058.94 377.171 1052.01 394.614 1052.01L328.842 1117.76C346.286 1117.76 363.016 1110.84 375.35 1098.5C387.685 1086.17 394.614 1069.45 394.614 1052.01" fill="#D9D9FA"/>
<path d="M328.842 1117.76H263.07V1183.52H328.842V1117.76Z" fill="#A2A3F2"/>
<path d="M263.07 1117.76C280.514 1117.76 297.244 1124.69 309.578 1137.02C321.913 1149.35 328.842 1166.08 328.842 1183.52L263.07 1117.76C263.07 1135.2 270 1151.93 282.335 1164.26C294.669 1176.59 311.399 1183.52 328.842 1183.52" fill="#FF5659"/>
<path d="M394.614 1117.76H328.842V1183.52H394.614V1117.76Z" fill="#CCCDF8"/>
<path d="M328.842 1183.52C328.842 1166.08 335.772 1149.35 348.106 1137.02C360.441 1124.69 377.171 1117.76 394.614 1117.76V1183.52H328.842Z" fill="#D2DFF9"/>
<path d="M526.135 1052.02H394.602V1183.52H526.135V1052.02Z" fill="white"/>
<path d="M460.368 1052.01H394.596V1117.76H460.368V1052.01Z" fill="#C1C2F6"/>
<path d="M394.596 1052.01C412.04 1052.01 428.769 1058.94 441.104 1071.27C453.439 1083.6 460.368 1100.32 460.368 1117.76H394.596V1052.01Z" fill="#7CA3EC"/>
<path d="M526.141 1052.01H460.369V1117.76H526.141V1052.01Z" fill="#4F51E6"/>
<path d="M460.369 1052.01C469.006 1052.01 477.559 1053.71 485.539 1057.01C493.518 1060.32 500.769 1065.16 506.877 1071.27C512.984 1077.37 517.829 1084.62 521.134 1092.6C524.44 1100.58 526.141 1109.13 526.141 1117.76L460.369 1052.01C460.369 1069.45 467.298 1086.17 479.633 1098.5C491.968 1110.84 508.697 1117.76 526.141 1117.76" fill="#FF8A8C"/>
<path d="M460.368 1117.76H394.596V1183.52H460.368V1117.76Z" fill="#3235E2"/>
<path d="M394.596 1183.52C394.596 1166.08 401.526 1149.35 413.86 1137.02C426.195 1124.69 442.924 1117.76 460.368 1117.76V1183.52H394.596Z" fill="#AAABF3"/>
<path d="M526.141 1117.76H460.369V1183.52H526.141V1117.76Z" fill="#FBB441"/>
<path d="M460.369 1117.76C469.006 1117.76 477.559 1119.46 485.539 1122.77C493.518 1126.07 500.769 1130.92 506.877 1137.02C512.984 1143.13 517.829 1150.38 521.134 1158.36C524.44 1166.33 526.141 1174.88 526.141 1183.52L460.369 1117.76C460.369 1135.2 467.298 1151.93 479.633 1164.26C491.968 1176.59 508.697 1183.52 526.141 1183.52" fill="#C3D5F6"/>
<path d="M657.667 1052.01H526.141V1183.5H657.667V1052.01Z" fill="#B4B5F4"/>
<path d="M526.141 1183.5C526.141 1148.63 539.998 1115.18 564.664 1090.52C589.33 1065.86 622.784 1052.01 657.667 1052.01L526.141 1183.5C543.413 1183.5 560.516 1180.1 576.473 1173.49C592.431 1166.88 606.93 1157.2 619.144 1144.99C631.357 1132.78 641.045 1118.28 647.655 1102.33C654.265 1086.37 657.667 1069.28 657.667 1052.01" fill="#FAAA2A"/>
<path d="M789.193 1052.01H657.667V1183.5H789.193V1052.01Z" fill="#FFFEFE"/>
<path d="M657.667 1183.5C657.667 1148.63 671.524 1115.18 696.19 1090.52C720.856 1065.86 754.31 1052.01 789.193 1052.01L657.667 1183.5C692.549 1183.5 726.004 1169.65 750.669 1144.99C775.335 1120.33 789.193 1086.88 789.193 1052.01" fill="#FFD9DA"/>
<path d="M920.737 1052.01H789.211V1183.5H920.737V1052.01Z" fill="#FDD89D"/>
<path d="M789.211 1183.5C824.094 1183.5 857.548 1169.65 882.214 1144.99C906.88 1120.33 920.737 1086.88 920.737 1052.01H789.211V1183.5Z" fill="#FCC977"/>
<path d="M131.526 1183.52H0V1315.01H131.526V1183.52Z" fill="#5588E7"/>
<path d="M0 1315.01C0 1280.14 13.8572 1246.69 38.5231 1222.03C63.189 1197.37 96.6432 1183.52 131.526 1183.52L0 1315.01C34.8829 1315.01 68.337 1301.16 93.003 1276.5C117.669 1251.84 131.526 1218.39 131.526 1183.52" fill="#FFD4D5"/>
<path d="M263.068 1183.52H131.534V1315.02H263.068V1183.52Z" fill="white"/>
<path d="M197.299 1183.52H131.526V1249.28H197.299V1183.52Z" fill="#6C98EA"/>
<path d="M131.526 1183.52C148.97 1183.52 165.7 1190.45 178.034 1202.78C190.369 1215.11 197.299 1231.84 197.299 1249.28L131.526 1183.52C131.526 1192.15 133.228 1200.71 136.533 1208.68C139.838 1216.66 144.683 1223.91 150.791 1230.02C156.898 1236.12 164.149 1240.97 172.129 1244.27C180.108 1247.57 188.661 1249.28 197.299 1249.28" fill="#FFE8E9"/>
<path d="M263.07 1183.52H197.298V1249.28H263.07V1183.52Z" fill="#A9AAF3"/>
<path d="M197.298 1183.52C205.935 1183.52 214.488 1185.22 222.468 1188.52C230.448 1191.83 237.698 1196.67 243.806 1202.78C249.913 1208.89 254.758 1216.13 258.063 1224.11C261.369 1232.09 263.07 1240.64 263.07 1249.28H197.298V1183.52Z" fill="#FDDBA3"/>
<path d="M197.299 1249.28H131.526V1315.03H197.299V1249.28Z" fill="#FDD89D"/>
<path d="M131.526 1315.03C131.526 1297.59 138.456 1280.87 150.791 1268.54C163.125 1256.21 179.855 1249.28 197.299 1249.28L131.526 1315.03C148.97 1315.03 165.7 1308.11 178.034 1295.77C190.369 1283.44 197.299 1266.72 197.299 1249.28" fill="#7C7EEC"/>
<path d="M263.07 1249.28H197.298V1315.03H263.07V1249.28Z" fill="#FF5456"/>
<path d="M197.298 1315.03C205.935 1315.03 214.488 1313.33 222.468 1310.03C230.448 1306.72 237.698 1301.88 243.806 1295.77C249.913 1289.67 254.758 1282.42 258.063 1274.44C261.369 1266.46 263.07 1257.91 263.07 1249.28H197.298V1315.03Z" fill="#3C77E3"/>
<path d="M394.602 1183.52H263.068V1315.02H394.602V1183.52Z" fill="white"/>
<path d="M328.842 1183.52H263.07V1249.28H328.842V1183.52Z" fill="#FFC6C7"/>
<path d="M263.07 1183.52C263.07 1192.15 264.772 1200.71 268.077 1208.68C271.382 1216.66 276.227 1223.91 282.335 1230.02C288.442 1236.12 295.693 1240.97 303.673 1244.27C311.652 1247.57 320.205 1249.28 328.842 1249.28V1183.52H263.07Z" fill="#F3F3FD"/>
<path d="M394.614 1183.52H328.842V1249.28H394.614V1183.52Z" fill="#2A2DE0"/>
<path d="M328.842 1183.52C328.842 1192.15 330.544 1200.71 333.849 1208.68C337.154 1216.66 341.999 1223.91 348.106 1230.02C354.214 1236.12 361.465 1240.97 369.444 1244.27C377.424 1247.57 385.977 1249.28 394.614 1249.28V1183.52H328.842Z" fill="#2427E0"/>
<path d="M328.842 1249.28H263.07V1315.03H328.842V1249.28Z" fill="#FDDEAD"/>
<path d="M263.07 1249.28C280.514 1249.28 297.244 1256.21 309.578 1268.54C321.913 1280.87 328.842 1297.59 328.842 1315.03L263.07 1249.28C263.07 1266.72 270 1283.44 282.335 1295.77C294.669 1308.11 311.399 1315.03 328.842 1315.03" fill="#CACAF7"/>
<path d="M394.614 1249.28H328.842V1315.03H394.614V1249.28Z" fill="#FF4F52"/>
<path d="M328.842 1249.28C328.842 1266.72 335.772 1283.44 348.106 1295.77C360.441 1308.11 377.171 1315.03 394.614 1315.03V1249.28H328.842Z" fill="#5487E6"/>
<path d="M526.135 1183.52H394.602V1315.02H526.135V1183.52Z" fill="white"/>
<path d="M460.368 1183.52H394.596V1249.28H460.368V1183.52Z" fill="#EDEDFC"/>
<path d="M394.596 1249.28C394.596 1231.84 401.526 1215.11 413.86 1202.78C426.195 1190.45 442.924 1183.52 460.368 1183.52L394.596 1249.28C403.234 1249.28 411.786 1247.57 419.766 1244.27C427.746 1240.97 434.997 1236.12 441.104 1230.02C447.212 1223.91 452.056 1216.66 455.362 1208.68C458.667 1200.71 460.368 1192.15 460.368 1183.52" fill="#3C77E3"/>
<path d="M526.141 1183.52H460.369V1249.28H526.141V1183.52Z" fill="#FFBBBC"/>
<path d="M460.369 1249.28C469.006 1249.28 477.559 1247.57 485.539 1244.27C493.518 1240.97 500.769 1236.12 506.877 1230.02C512.984 1223.91 517.829 1216.66 521.134 1208.68C524.44 1200.71 526.141 1192.15 526.141 1183.52H460.369V1249.28Z" fill="#E5EDFB"/>
<path d="M460.368 1249.28H394.596V1315.03H460.368V1249.28Z" fill="#9394EF"/>
<path d="M394.596 1315.03C394.596 1297.59 401.526 1280.87 413.86 1268.54C426.195 1256.21 442.924 1249.28 460.368 1249.28L394.596 1315.03C412.04 1315.03 428.769 1308.11 441.104 1295.77C453.439 1283.44 460.368 1266.72 460.368 1249.28" fill="#FCD18B"/>
<path d="M526.141 1249.28H460.369V1315.03H526.141V1249.28Z" fill="#FFE0E0"/>
<path d="M460.369 1249.28C469.006 1249.28 477.559 1250.98 485.539 1254.28C493.518 1257.59 500.769 1262.43 506.877 1268.54C512.984 1274.64 517.829 1281.89 521.134 1289.87C524.44 1297.85 526.141 1306.4 526.141 1315.03H460.369V1249.28Z" fill="#FEEED4"/>
<path d="M657.667 1183.52H526.141V1315.01H657.667V1183.52Z" fill="#BBBBF5"/>
<path d="M526.141 1183.52C543.413 1183.52 560.516 1186.92 576.473 1193.53C592.431 1200.14 606.93 1209.82 619.144 1222.03C631.357 1234.24 641.045 1248.74 647.655 1264.69C654.265 1280.65 657.667 1297.75 657.667 1315.01H526.141V1183.52Z" fill="#93B3EF"/>
<path d="M789.203 1183.52H657.669V1315.02H789.203V1183.52Z" fill="white"/>
<path d="M723.439 1183.52H657.667V1249.28H723.439V1183.52Z" fill="#B7CDF5"/>
<path d="M657.667 1249.28C666.304 1249.28 674.857 1247.57 682.836 1244.27C690.816 1240.97 698.067 1236.12 704.174 1230.02C710.282 1223.91 715.127 1216.66 718.432 1208.68C721.737 1200.71 723.439 1192.15 723.439 1183.52H657.667V1249.28Z" fill="#FF9FA1"/>
<path d="M789.211 1183.52H723.439V1249.28H789.211V1183.52Z" fill="#B2B3F4"/>
<path d="M723.439 1249.28C723.439 1231.84 730.369 1215.11 742.703 1202.78C755.038 1190.45 771.767 1183.52 789.211 1183.52V1249.28H723.439Z" fill="#FDDEAC"/>
<path d="M723.439 1249.28H657.667V1315.03H723.439V1249.28Z" fill="#FEF3E0"/>
<path d="M657.667 1249.28C675.11 1249.28 691.84 1256.21 704.174 1268.54C716.509 1280.87 723.439 1297.59 723.439 1315.03L657.667 1249.28C657.667 1266.72 664.596 1283.44 676.931 1295.77C689.265 1308.11 705.995 1315.03 723.439 1315.03" fill="#B6CCF4"/>
<path d="M789.211 1249.28H723.439V1315.03H789.211V1249.28Z" fill="#296AE0"/>
<path d="M723.439 1315.03C723.439 1297.59 730.369 1280.87 742.703 1268.54C755.038 1256.21 771.767 1249.28 789.211 1249.28V1315.03H723.439Z" fill="#C0D3F6"/>
<path d="M920.737 1183.52H789.211V1315.01H920.737V1183.52Z" fill="#2567E0"/>
<path d="M789.211 1315.01C789.211 1297.75 792.613 1280.65 799.223 1264.69C805.833 1248.74 815.521 1234.24 827.734 1222.03C839.947 1209.82 854.447 1200.14 870.404 1193.53C886.362 1186.92 903.465 1183.52 920.737 1183.52V1315.01H789.211Z" fill="#FEEBCC"/>
</g>
<path d="M245.5 1017.5C182.3 1029.1 54.8333 1127.33 -1 1175L-47.5 1320L119.5 1334.5L204 1241.5L316 1103.5L366 1060H691L859.5 1103.5L883.5 1078.5L706.5 997H297.5L245.5 1017.5Z" fill="#581717"/>
<path d="M270.5 491.5L309 529.5L51 530C94.6 510 215.5 496 270.5 491.5Z" fill="#0A41CB"/>
<path d="M279 560L309 529.5H54C79.6 537.9 222.667 556.167 279 560Z" fill="#01256C"/>
<path d="M425 414L309 529.5L270 491.5C337.881 414.966 316.777 414 425 414Z" fill="#4BB3F4"/>
<path d="M373 593.5L309 529.5L279 560L279.5 593.5H373Z" fill="#F4F3E7"/>
<path d="M281.5 685L279.5 593.5H372.5L281.5 685Z" fill="#FFB568"/>
<path d="M519 898L445.5 824.5L412.5 873.5L444 910C465.6 922 489.167 921.5 497.5 919.5L453 964H413.5L412.5 997H552L567 964H496L542 919L519 898Z" fill="#002868"/>
<path d="M426.5 889.5L443.5 909.5L396.5 964H426.5L422.5 997.5H299.5L287.5 966H349.5L426.5 889.5Z" fill="#002868"/>
<path d="M411.5 530.176L479.454 593.5L563.5 594.5V495.5L411.5 530.176Z" fill="#03256A"/>
<path d="M404 625.5L454 575.5L411.5 529.5H309L404 625.5Z" fill="#1E98F3"/>
<path d="M563.5 594.5L509 531.5L470.5 592.5L563.5 594.5Z" fill="#F1F3E7"/>
<path d="M509 532L410 530.5L471 592.5L509 532Z" fill="#FFB769"/>
<path d="M516 745L571.5 689L454.5 575.5L404 625.5L516 745Z" fill="#4BB9FC"/>
<path d="M571 689L609 645L563.5 594.5L469.5 592.5L571 689Z" fill="#DAEAF5"/>
<path d="M571 689L609.5 645.5C683.535 720.746 676.29 725.964 674.004 791L571 689Z" fill="#0A41CB"/>
<path d="M516.5 744.5L571 689L673 789.5L663.5 829L598 828L516.5 744.5Z" fill="#1E98F3"/>
<path d="M687.481 954.164L687.5 953.5L629.5 892L559.5 886.5L685.5 1008L687.476 954.158L687.481 954.164Z" fill="#1C99F2"/>
<path d="M687.5 891V953.5L631.5 894L687.5 891Z" fill="#0B3FCB"/>
<path d="M664 829L673.5 790.5L809.5 884C709.928 886.895 579.344 903.667 561 886C521.442 848.368 519.881 841.363 501 825L664 829Z" fill="#03256A"/>
<path d="M598 827.5L517 744.5L465.5 792L502 826L598 827.5Z" fill="#0A41C9"/>
<path d="M469 792L517 744L403.5 624.5C367.9 653.7 368.167 692.333 374.5 703.5L469 792Z" fill="#1E98F3"/>
<path d="M373.5 593.5L404 625C369.2 650.2 375.5 694 380.5 724.5L281 723V685L373.5 593.5Z" fill="#FF7D37"/>
<path d="M291.5 757.512C291.5 757.512 279.5 738.988 281 723L377 725.512L375 841.512L291.5 757.512Z" fill="#FFB669"/>
<path d="M412.5 874L445.5 824L375.5 759.5V841.5L412.5 874Z" fill="#FD7E39"/>
<path d="M446 825L469 792L377.5 705L375.5 760L446 825Z" fill="#D9663A"/>
<path d="M469 792L712 1034C680 1040 645.833 1023.17 635.5 1014L446 825L469 792Z" fill="#D54730"/>
<path d="M685.5 1008L687.5 953.5L772 1034.5H712.5L685.5 1008Z" fill="#0743C7"/>
<path d="M394.004 494.989L409.504 530.486L504.501 530.486L563 494.993L394.004 494.989Z" fill="#03256A"/>
<path d="M409.5 530.5L394 495L309 529.5L409.5 530.5Z" fill="#03256A"/>
<path d="M399 494.5L358 493.5H344.5L309 529.5L399 494.5Z" fill="#03256A"/>
<path d="M528.5 430.5L528.489 430.513C524.233 428.293 499.518 415.455 490.294 414.5L425 414L366.5 472C389.439 470.64 391.889 488.5 393.5 495.5L473.645 496.5L528.489 430.513C529.283 430.927 529.365 430.972 528.5 430.5Z" fill="#1E98F3"/>
<path d="M466 495.5L528.426 430.5C565.616 451.538 562.958 466.721 562.958 495.5H466Z" fill="#0A41CB"/>
<path d="M393.5 495.499L344.5 493.999L365.999 472.498C379 466.501 397 479.5 393.5 495.499Z" fill="#03256A"/>
<circle cx="8.5" cy="8.5" r="8.5" transform="matrix(-1 0 0 1 381.5 483.5)" fill="white"/>
<defs>
<clipPath id="clip0_0_1">
<rect width="1973" height="1315" fill="white"/>
</clipPath>
</defs>
</svg>
