<svg width="759" height="622" viewBox="0 0 759 622" fill="none" xmlns="http://www.w3.org/2000/svg">
<path d="M539 77.5L500.5 115.5L758.5 116C714.9 96 594 82 539 77.5Z" fill="#0A41CB"/>
<path d="M530.5 146L500.5 115.5H755.5C729.9 123.9 586.833 142.167 530.5 146Z" fill="#01256C"/>
<path d="M384.5 0L500.5 115.5L539.5 77.5C471.619 0.965523 492.723 0 384.5 0Z" fill="#4BB3F4"/>
<path d="M436.5 179.5L500.5 115.5L530.5 146L530 179.5H436.5Z" fill="#F4F3E7"/>
<path d="M528 271L530 179.5H437L528 271Z" fill="#FFB568"/>
<path d="M290.5 484L364 410.5L397 459.5L365.5 496C343.9 508 320.333 507.5 312 505.5L356.5 550H396L397 583H257.5L242.5 550H313.5L267.5 505L290.5 484Z" fill="#002868"/>
<path d="M383 475.5L366 495.5L413 550H383L387 583.5H510L522 552H460L383 475.5Z" fill="#002868"/>
<path d="M398 116.176L330.046 179.5L246 180.5V81.5L398 116.176Z" fill="#03256A"/>
<path d="M405.5 211.5L355.5 161.5L398 115.5H500.5L405.5 211.5Z" fill="#1E98F3"/>
<path d="M246 180.5L300.5 117.5L339 178.5L246 180.5Z" fill="#F1F3E7"/>
<path d="M300.5 118L399.5 116.5L338.5 178.5L300.5 118Z" fill="#FFB769"/>
<path d="M293.5 331L238 275L355 161.5L405.5 211.5L293.5 331Z" fill="#4BB9FC"/>
<path d="M238.5 275L200.5 231L246 180.5L340 178.5L238.5 275Z" fill="#DAEAF5"/>
<path d="M238.5 275L200 231.5C125.965 306.746 133.21 311.964 135.496 377L238.5 275Z" fill="#0A41CB"/>
<path d="M293 330.5L238.5 275L136.5 375.5L146 415L211.5 414L293 330.5Z" fill="#1E98F3"/>
<path d="M122.019 540.164L122 539.5L180 478L250 472.5L124 594L122.024 540.158L122.019 540.164Z" fill="#1C99F2"/>
<path d="M122 477V539.5L178 480L122 477Z" fill="#0B3FCB"/>
<path d="M145.5 415L136 376.5L0 470C99.5716 472.895 230.156 489.667 248.5 472C288.058 434.368 289.619 427.363 308.5 411L145.5 415Z" fill="#03256A"/>
<path d="M211.5 413.5L292.5 330.5L344 378L307.5 412L211.5 413.5Z" fill="#0A41C9"/>
<path d="M340.5 378L292.5 330L406 210.5C441.6 239.7 441.333 278.333 435 289.5L340.5 378Z" fill="#1E98F3"/>
<path d="M436 179.5L405.5 211C440.3 236.2 434 280 429 310.5L528.5 309V271L436 179.5Z" fill="#FF7D37"/>
<path d="M518 343.512C518 343.512 530 324.988 528.5 309L432.5 311.512L434.5 427.512L518 343.512Z" fill="#FFB669"/>
<path d="M397 460L364 410L434 345.5V427.5L397 460Z" fill="#FD7E39"/>
<path d="M363.5 411L340.5 378L432 291L434 346L363.5 411Z" fill="#D9663A"/>
<path d="M340.5 378L97.5 620C129.5 626 163.667 609.167 174 600L363.5 411L340.5 378Z" fill="#D54730"/>
<path d="M124 594L122 539.5L37.5 620.5H97L124 594Z" fill="#0743C7"/>
<path d="M415.496 80.9887L399.996 116.486L304.999 116.486L246.5 80.9929L415.496 80.9887Z" fill="#03256A"/>
<path d="M400 116.5L415.5 81L500.5 115.5L400 116.5Z" fill="#03256A"/>
<path d="M410.5 80.5L451.5 79.5H465L500.5 115.5L410.5 80.5Z" fill="#03256A"/>
<path d="M281 16.5L281.011 16.513C285.267 14.2928 309.982 1.45476 319.206 0.5L384.5 0L443 58C420.061 56.6404 417.611 74.5 416 81.5L335.855 82.5L281.011 16.513C280.217 16.9275 280.135 16.9719 281 16.5Z" fill="#1E98F3"/>
<path d="M343.5 81.5L281.074 16.5C243.884 37.5382 246.542 52.7214 246.542 81.5H343.5Z" fill="#0A41CB"/>
<path d="M416 81.4986L465 79.9994L443.501 58.498C430.5 52.5008 412.5 65.5 416 81.4986Z" fill="#03256A"/>
<circle cx="436.5" cy="78" r="8.5" fill="white"/>
</svg>
